<mxfile host="65bd71144e">
    <diagram id="pIaEtrtLPv3HG8r1JEND" name="Page-1">
        <mxGraphModel dx="630" dy="492" grid="1" gridSize="10" guides="1" tooltips="1" connect="1" arrows="1" fold="1" page="1" pageScale="1" pageWidth="850" pageHeight="1100" math="0" shadow="0">
            <root>
                <mxCell id="0"/>
                <mxCell id="1" parent="0"/>
                <mxCell id="2" value="" style="rounded=0;whiteSpace=wrap;html=1;strokeColor=#000000;" parent="1" vertex="1">
                    <mxGeometry x="80" y="80" width="400" height="300" as="geometry"/>
                </mxCell>
                <mxCell id="3" value="Sphere Volume Calculator, JS" style="rounded=0;whiteSpace=wrap;html=1;" parent="1" vertex="1">
                    <mxGeometry x="80" y="80" width="400" height="40" as="geometry"/>
                </mxCell>
                <mxCell id="6" value="Calculate" style="labelPosition=center;verticalLabelPosition=middle;align=center;html=1;shape=mxgraph.basic.button;dx=10;" parent="1" vertex="1">
                    <mxGeometry x="110" y="260" width="100" height="40" as="geometry"/>
                </mxCell>
                <mxCell id="7" value="" style="ellipse;whiteSpace=wrap;html=1;aspect=fixed;" vertex="1" parent="1">
                    <mxGeometry x="350" y="160" width="80" height="80" as="geometry"/>
                </mxCell>
                <mxCell id="8" value="" style="rounded=0;whiteSpace=wrap;html=1;" vertex="1" parent="1">
                    <mxGeometry x="135" y="225" width="90" height="10" as="geometry"/>
                </mxCell>
                <mxCell id="9" value="&lt;span style=&quot;font-size: 16px&quot;&gt;Formula: 4 / 3 Ï€ r&lt;/span&gt;&lt;font color=&quot;#333333&quot; face=&quot;Arial, sans-serif&quot;&gt;&lt;span style=&quot;font-size: 17.568px ; background-color: rgb(255 , 255 , 255)&quot;&gt;&amp;nbsp;^ 3&lt;/span&gt;&lt;/font&gt;&lt;span class=&quot;mo&quot; id=&quot;MathJax-Span-14&quot; style=&quot;transition: none 0s ease 0s ; display: inline ; position: static ; border: 0px ; padding: 0px 0px 0px 0.287em ; margin: 0px ; vertical-align: 0px ; line-height: normal ; box-sizing: content-box ; color: rgb(51 , 51 , 51) ; font-size: 17.568px ; background-color: rgb(255 , 255 , 255) ; font-family: &amp;#34;mathjax_main&amp;#34;&quot;&gt;&lt;/span&gt;" style="text;html=1;strokeColor=none;fillColor=none;align=center;verticalAlign=middle;whiteSpace=wrap;rounded=0;" vertex="1" parent="1">
                    <mxGeometry x="80" y="120" width="160" height="30" as="geometry"/>
                </mxCell>
                <mxCell id="10" value="&lt;font style=&quot;font-size: 12px&quot;&gt;Enter The Radius To Find Your Area&lt;/font&gt;" style="text;html=1;strokeColor=none;fillColor=none;align=center;verticalAlign=middle;whiteSpace=wrap;rounded=0;fontSize=16;" vertex="1" parent="1">
                    <mxGeometry x="80" y="160" width="200" height="30" as="geometry"/>
                </mxCell>
                <mxCell id="11" value="Radius:" style="text;html=1;strokeColor=none;fillColor=none;align=center;verticalAlign=middle;whiteSpace=wrap;rounded=0;fontSize=12;" vertex="1" parent="1">
                    <mxGeometry x="90" y="220" width="40" height="20" as="geometry"/>
                </mxCell>
                <mxCell id="13" value="" style="endArrow=none;html=1;fontSize=12;entryX=1;entryY=0.5;entryDx=0;entryDy=0;exitX=0;exitY=0.5;exitDx=0;exitDy=0;" edge="1" parent="1" source="7" target="7">
                    <mxGeometry width="50" height="50" relative="1" as="geometry">
                        <mxPoint x="300" y="180" as="sourcePoint"/>
                        <mxPoint x="350" y="130" as="targetPoint"/>
                        <Array as="points">
                            <mxPoint x="360" y="210"/>
                            <mxPoint x="390" y="210"/>
                            <mxPoint x="410" y="210"/>
                            <mxPoint x="420" y="210"/>
                        </Array>
                    </mxGeometry>
                </mxCell>
                <mxCell id="15" value="" style="endArrow=none;html=1;fontSize=12;exitX=0;exitY=0.5;exitDx=0;exitDy=0;strokeColor=#B3B3B3;" edge="1" parent="1" source="7">
                    <mxGeometry width="50" height="50" relative="1" as="geometry">
                        <mxPoint x="350" y="195" as="sourcePoint"/>
                        <mxPoint x="430" y="200" as="targetPoint"/>
                        <Array as="points">
                            <mxPoint x="370" y="190"/>
                            <mxPoint x="390" y="190"/>
                            <mxPoint x="410" y="190"/>
                        </Array>
                    </mxGeometry>
                </mxCell>
                <mxCell id="16" value="" style="endArrow=none;html=1;fontSize=12;strokeColor=#B3B3B3;entryX=0.793;entryY=0.098;entryDx=0;entryDy=0;entryPerimeter=0;startArrow=none;" edge="1" parent="1" source="17" target="7">
                    <mxGeometry width="50" height="50" relative="1" as="geometry">
                        <mxPoint x="390" y="200" as="sourcePoint"/>
                        <mxPoint x="420" y="170" as="targetPoint"/>
                        <Array as="points"/>
                    </mxGeometry>
                </mxCell>
                <mxCell id="18" value="" style="endArrow=none;html=1;fontSize=12;strokeColor=#000000;entryX=0.793;entryY=0.098;entryDx=0;entryDy=0;entryPerimeter=0;labelBackgroundColor=#000000;" edge="1" parent="1" target="17">
                    <mxGeometry width="50" height="50" relative="1" as="geometry">
                        <mxPoint x="390" y="200" as="sourcePoint"/>
                        <mxPoint x="413.43999999999994" y="167.84000000000003" as="targetPoint"/>
                        <Array as="points"/>
                    </mxGeometry>
                </mxCell>
                <mxCell id="19" value="r" style="text;html=1;strokeColor=none;fillColor=none;align=center;verticalAlign=middle;whiteSpace=wrap;rounded=0;fontSize=12;" vertex="1" parent="1">
                    <mxGeometry x="400" y="180" width="10" height="10" as="geometry"/>
                </mxCell>
                <mxCell id="22" value="" style="endArrow=none;html=1;labelBackgroundColor=#000000;fontSize=12;strokeColor=#E6E6E6;startArrow=none;" edge="1" parent="1" source="23">
                    <mxGeometry width="50" height="50" relative="1" as="geometry">
                        <mxPoint x="350" y="200" as="sourcePoint"/>
                        <mxPoint x="430" y="200" as="targetPoint"/>
                    </mxGeometry>
                </mxCell>
                <mxCell id="17" value="" style="ellipse;whiteSpace=wrap;html=1;aspect=fixed;fontSize=12;fillColor=#000000;" vertex="1" parent="1">
                    <mxGeometry x="387.5" y="197.5" width="3" height="3" as="geometry"/>
                </mxCell>
                <mxCell id="23" value="&lt;font style=&quot;font-size: 9px&quot;&gt;d&lt;/font&gt;" style="text;html=1;strokeColor=none;fillColor=none;align=center;verticalAlign=middle;whiteSpace=wrap;rounded=0;fontSize=12;" vertex="1" parent="1">
                    <mxGeometry x="370" y="194" width="10" height="10" as="geometry"/>
                </mxCell>
                <mxCell id="24" value="" style="endArrow=none;html=1;labelBackgroundColor=#000000;fontSize=12;strokeColor=#E6E6E6;" edge="1" parent="1" target="23">
                    <mxGeometry width="50" height="50" relative="1" as="geometry">
                        <mxPoint x="350" y="200" as="sourcePoint"/>
                        <mxPoint x="430" y="200" as="targetPoint"/>
                    </mxGeometry>
                </mxCell>
            </root>
        </mxGraphModel>
    </diagram>
</mxfile>